<?xml version="1.0" encoding="utf-8"?>
<!-- Generator: Adobe Illustrator 24.0.2, SVG Export Plug-In . SVG Version: 6.00 Build 0)  -->
<svg version="1.1" id="_x31_" xmlns="http://www.w3.org/2000/svg" xmlns:xlink="http://www.w3.org/1999/xlink" x="0px" y="0px"
	 viewBox="0 0 60.08 47.54" style="enable-background:new 0 0 60.08 47.54;" xml:space="preserve">
<style type="text/css">
	.st0{fill:#FFFFFF;}
</style>
<g>
	<path class="st0" d="M59.27,1.92c-1.41-2.21-3.88-1.9-6.11-1.9c-3.4,0-6.8,0-10.2,0c-9.17,0-18.33,0-27.5,0c-3.1,0-6.2,0-9.29,0
		c-2.74,0-5.61,0.46-6.01,3.88c-0.23,2-0.04,4.1-0.04,6.1c0,4.3,0,8.59,0,12.89c0,6.71-0.27,13.49,0,20.19
		c0.1,2.34,1.53,4.07,3.8,4.41c0.1,0.03,0.21,0.04,0.33,0.04c14.43,0,28.85,0,43.28,0c2.54,0,5.08,0.03,7.62,0
		c2.86-0.03,4.78-1.76,4.84-4.73c0.16-7.23,0-14.47,0-21.7c0-4.12,0-8.23,0-12.35C60,6.68,60.44,3.76,59.27,1.92z M55.63,45.02
		c-1.9,0.16-3.89,0-5.79,0c-14.82,0-29.64,0-44.46,0c-0.38,0-0.75,0-1.13,0c-2.33-0.21-1.62-4.67-1.62-6.23c0-3.88,0-7.76,0-11.65
		c0-7.23,0-14.46,0-21.7c0-0.98-0.11-2.2,0.93-2.75c0.5-0.26,1.16-0.18,1.7-0.18c2.53,0,5.06,0,7.59,0c8.44,0,16.88,0,25.32,0
		c3.81,0,7.61,0,11.42,0c1.98,0,4.03-0.16,6.01,0c2.27,0.18,1.88,2.58,1.88,4.24c0,3.4,0,6.79,0,10.19c0,7.91,0,15.82,0,23.74
		C57.49,42.34,57.9,44.83,55.63,45.02z"/>
	<path class="st0" d="M54.62,8.38c-0.1-2.09-1.5-2.99-3.43-2.99c-2.15,0-4.3,0-6.44,0c-7.42,0-14.84,0-22.26,0
		c-4.71,0-9.52-0.3-14.22,0C5.79,5.55,5.5,7.55,5.5,9.52c0,2.89,0,5.78,0,8.67c0,6.67,0,13.34,0,20.01c0,0.42,0,0.85,0,1.27
		c0,0.12,0.02,0.23,0.05,0.34c0.4,2.48,2.65,2.36,4.55,2.36c2.63,0,5.25,0,7.88,0c7.48,0,14.97,0,22.45,0c2.85,0,5.7,0,8.55,0
		c1.29,0,3.29,0.31,4.43-0.45c1.67-1.11,1.21-3.7,1.21-5.42c0-3.34,0-6.68,0-10.03C54.62,20.32,54.89,14.31,54.62,8.38z
		 M51.09,39.65c-1.98,0-3.95,0-5.93,0c-12.04,0-24.09,0-36.13,0c-0.48,0-0.87,0.15-1.02-0.33c0-4.59,0-9.17,0-13.76
		c0-3.52,0-7.04,0-10.57c0-2.07-0.28-4.37,0-6.43C8.14,7.56,9.02,7.9,9.94,7.9c2.33,0,4.66,0,6.99,0c7.01,0,14.02,0,21.03,0
		c2.99,0,5.98,0,8.97,0c1,0,2.01,0,3.01,0c0.47,0,1.29-0.16,1.74,0c0.81,0.3,0.43,2.01,0.43,2.82c0,2.94,0,5.88,0,8.82
		c0,6.19,0,12.38,0,18.57C52.11,39.26,52.29,39.65,51.09,39.65z"/>
	<path class="st0" d="M16.48,15.58c9.05,0,18.11,0,27.16,0c1.61,0,1.62-2.51,0-2.51c-9.05,0-18.11,0-27.16,0
		C14.86,13.07,14.86,15.58,16.48,15.58z"/>
	<path class="st0" d="M16.48,21.06c9.05,0,18.11,0,27.16,0c1.61,0,1.62-2.51,0-2.51c-9.05,0-18.11,0-27.16,0
		C14.86,18.56,14.86,21.06,16.48,21.06z"/>
	<path class="st0" d="M16.48,26.55c9.05,0,18.11,0,27.16,0c1.61,0,1.62-2.51,0-2.51c-9.05,0-18.11,0-27.16,0
		C14.86,24.04,14.86,26.55,16.48,26.55z"/>
	<path class="st0" d="M33.62,32.45c-5.71,0-11.43,0-17.14,0c-1.61,0-1.62,2.51,0,2.51c5.71,0,11.43,0,17.14,0
		C35.23,34.96,35.24,32.45,33.62,32.45z"/>
	<path class="st0" d="M48.62,33.34c-0.3-2.55-2.27-4.65-4.98-4.65c-2.72,0-5.01,2.29-5.01,5.01c0,2.65,2.17,4.9,4.81,5
		c2.78,0.11,4.87-2,5.18-4.63c0.03-0.11,0.04-0.24,0.04-0.37C48.66,33.57,48.65,33.45,48.62,33.34z M41.13,33.71
		c0-3.24,4.84-3.21,5.01,0C45.97,36.92,41.13,36.94,41.13,33.71z"/>
</g>
</svg>
