<?xml version="1.0" encoding="utf-8"?>
<!-- Generator: Adobe Illustrator 24.0.2, SVG Export Plug-In . SVG Version: 6.00 Build 0)  -->
<svg version="1.1" id="Layer_1" xmlns="http://www.w3.org/2000/svg" xmlns:xlink="http://www.w3.org/1999/xlink" x="0px" y="0px"
	 viewBox="0 0 293.8 149.7" style="enable-background:new 0 0 293.8 149.7;" xml:space="preserve">
<path d="M0,0c97.9,0,195.7,0,293.6,0c0.1,6.2,0.1,12.4,0.2,18.6c-97.9,0-195.9,0-293.8,0C0,12.4,0,6.2,0,0z"/>
<path d="M0,65.2c97.9,0,195.7,0,293.6,0c0.1,6.2,0.1,12.4,0.2,18.6c-97.9,0-195.9,0-293.8,0C0,77.6,0,71.4,0,65.2z"/>
<path d="M0,131c97.9,0,195.7,0,293.6,0c0.1,6.2,0.1,12.4,0.2,18.6c-97.9,0-195.9,0-293.8,0C0,143.5,0,137.2,0,131z"/>
</svg>
